<?xml version="1.0" encoding="utf-8"?>
<!-- Generator: Adobe Illustrator 26.0.1, SVG Export Plug-In . SVG Version: 6.00 Build 0)  -->
<svg version="1.1" id="Layer_1" xmlns="http://www.w3.org/2000/svg" xmlns:xlink="http://www.w3.org/1999/xlink" x="0px" y="0px"
	 viewBox="0 0 478.9 324.1" style="enable-background:new 0 0 478.9 324.1;" xml:space="preserve">
<style type="text/css">
	.st0{fill:#FFFFFF;}
</style>
<path class="st0" d="M456.7,0H22.1C9.9,0,0,9.9,0,22.1c0,0,0,0,0,0V302c0,12.2,9.9,22.1,22.1,22.1c0,0,0,0,0,0h434.6
	c12.2,0,22.1-9.9,22.1-22.1c0,0,0,0,0,0V22.1C478.9,9.9,469,0,456.7,0C456.7,0,456.7,0,456.7,0z M441.9,32.1c0,1.9-0.8,3.6-2.3,4.8
	L243.7,196.4c-2.5,2-6.1,2-8.6,0L39.3,36.9c-1.4-1.2-2.3-3-2.3-4.8l0,0c0-3.4,2.8-6.2,6.2-6.2c1.4,0,2.8,0.5,3.9,1.4l192.3,156.6
	L431.7,27.2c2.7-2.2,6.6-1.8,8.8,0.9C441.4,29.2,441.9,30.6,441.9,32.1L441.9,32.1z"/>
</svg>
